<svg xmlns="http://www.w3.org/2000/svg" viewBox="0 0 256 256" role="img" aria-label="SocialEra App icon">
  <defs>
    <linearGradient id="bg" x1="0" y1="0" x2="1" y2="1">
      <stop offset="0%" stop-color="#d06d4d"/>
      <stop offset="100%" stop-color="#111827"/>
    </linearGradient>
  </defs>
  <rect width="256" height="256" rx="64" fill="url(#bg)"/>
  <circle cx="188" cy="70" r="34" fill="rgba(255,255,255,0.16)"/>
  <circle cx="72" cy="188" r="46" fill="rgba(255,255,255,0.11)"/>
  <path d="M76 97c0-22 16-37 42-37 18 0 34 7 49 21l-16 19c-9-8-19-13-33-13-12 0-19 5-19 12 0 8 8 11 28 15 31 7 49 16 49 44 0 27-21 42-52 42-22 0-42-8-57-23l16-20c13 11 26 17 41 17 13 0 21-5 21-13 0-8-6-11-24-15-33-8-45-20-45-49Z" fill="#fffaf4"/>
</svg>
