<svg width="1024" height="1024" viewBox="0 0 1024 1024" fill="none" xmlns="http://www.w3.org/2000/svg">
  <defs>
    <linearGradient id="gold" x1="312" y1="392" x2="690" y2="670" gradientUnits="userSpaceOnUse">
      <stop offset="0" stop-color="#EDC96F"/>
      <stop offset="0.55" stop-color="#D2A347"/>
      <stop offset="1" stop-color="#A87421"/>
    </linearGradient>
  </defs>
  <rect width="1024" height="1024" fill="#030303"/>
  <g fill="url(#gold)">
    <path d="M440 438C423 406 388 388 339 388C272 388 227 424 227 477C227 530 265 561 338 573C396 582 415 593 415 614C415 640 389 656 346 656C305 656 272 642 242 614L193 654C231 700 286 723 352 723C433 723 492 685 492 620C492 557 453 527 376 514C322 505 307 493 307 471C307 446 329 430 366 430C398 430 423 441 440 462V438Z"/>
    <path d="M486 521C486 433 547 388 632 388C716 388 775 434 789 508H709C700 477 672 459 634 459C588 459 554 486 548 534H681V598H549C558 641 592 666 640 666C677 666 705 651 723 624H794C771 686 713 723 638 723C548 723 486 667 486 578V521Z"/>
    <path d="M520 534H742V597H520V534Z"/>
  </g>
</svg>
